ply
format ascii 1.0
comment Created by Blender 3.2.0 - www.blender.org
element vertex 48
property float x
property float y
property float z
element face 96
property list uchar uint vertex_indices
end_header
1.000000 0.000000 0.500000
0.500000 0.000000 1.000000
0.500000 0.000000 0.500000
1.000000 0.000000 -0.500000
0.500000 0.000000 0.000000
0.500000 0.000000 -0.500000
0.000000 0.000000 0.500000
-0.500000 0.000000 1.000000
-0.500000 0.000000 0.500000
-0.500000 0.000000 0.000000
-1.000000 0.000000 0.500000
-1.000000 0.000000 0.000000
-1.000000 0.000000 1.000000
0.000000 0.000000 -1.000000
-0.500000 0.000000 -0.500000
-0.500000 0.000000 -1.000000
-1.000000 0.000000 -0.500000
-1.000000 0.000000 -1.000000
1.000000 0.000000 -1.000000
0.500000 0.000000 -1.000000
0.000000 0.000000 -0.500000
1.000000 0.000000 0.000000
0.000000 0.000000 1.000000
0.500000 2.000000 1.000000
1.000000 2.000000 0.500000
0.500000 2.000000 0.500000
0.500000 2.000000 0.000000
1.000000 2.000000 -0.500000
0.500000 2.000000 -0.500000
-0.500000 2.000000 1.000000
0.000000 2.000000 0.500000
-0.500000 2.000000 0.500000
-1.000000 2.000000 0.500000
-0.500000 2.000000 0.000000
-1.000000 2.000000 0.000000
-1.000000 2.000000 1.000000
-0.500000 2.000000 -0.500000
0.000000 2.000000 -1.000000
-0.500000 2.000000 -1.000000
-1.000000 2.000000 -0.500000
-1.000000 2.000000 -1.000000
1.000000 2.000000 -1.000000
0.500000 2.000000 -1.000000
0.000000 2.000000 -0.500000
1.000000 2.000000 0.000000
0.000000 2.000000 1.000000
1.000000 0.000000 1.000000
1.000000 2.000000 1.000000
3 0 1 2
3 3 4 5
3 6 7 8
3 9 10 11
3 8 12 10
3 13 14 15
3 15 16 17
3 14 11 16
3 18 5 19
3 19 20 13
3 21 2 4
3 2 22 6
3 23 24 25
3 26 27 28
3 29 30 31
3 32 33 34
3 35 31 32
3 36 37 38
3 39 38 40
3 34 36 39
3 28 41 42
3 43 42 37
3 25 44 26
3 45 25 30
3 12 32 10
3 7 35 12
3 4 28 5
3 20 36 14
3 46 23 1
3 0 47 46
3 15 37 13
3 18 27 3
3 6 25 2
3 10 34 11
3 13 42 19
3 2 26 4
3 1 45 22
3 14 33 9
3 11 39 16
3 8 30 6
3 3 44 21
3 22 29 7
3 19 41 18
3 5 43 20
3 21 24 0
3 9 31 8
3 17 38 15
3 16 40 17
3 0 46 1
3 3 21 4
3 6 22 7
3 9 8 10
3 8 7 12
3 13 20 14
3 15 14 16
3 14 9 11
3 18 3 5
3 19 5 20
3 21 0 2
3 2 1 22
3 23 47 24
3 26 44 27
3 29 45 30
3 32 31 33
3 35 29 31
3 36 43 37
3 39 36 38
3 34 33 36
3 28 27 41
3 43 28 42
3 25 24 44
3 45 23 25
3 12 35 32
3 7 29 35
3 4 26 28
3 20 43 36
3 46 47 23
3 0 24 47
3 15 38 37
3 18 41 27
3 6 30 25
3 10 32 34
3 13 37 42
3 2 25 26
3 1 23 45
3 14 36 33
3 11 34 39
3 8 31 30
3 3 27 44
3 22 45 29
3 19 42 41
3 5 28 43
3 21 44 24
3 9 33 31
3 17 40 38
3 16 39 40
