ply
format ascii 1.0
comment Created by Blender 3.2.0 - www.blender.org
element vertex 505
property float x
property float y
property float z
property float nx
property float ny
property float nz
property float s
property float t
element face 722
property list uchar uint vertex_indices
end_header
-1.000000 -1.000000 -0.000000 0.577350 0.577350 0.577350 0.000000 0.000000
0.875000 0.875000 2.000000 0.000000 0.000000 1.000000 0.640625 0.515625
0.750000 0.750000 2.000000 0.000000 0.000000 1.000000 0.656250 0.531250
0.875000 0.750000 2.000000 0.000000 0.000000 1.000000 0.640625 0.531250
0.750000 0.875000 2.000000 0.000000 0.000000 1.000000 0.656250 0.515625
0.625000 0.750000 2.000000 -0.000187 -0.000197 1.000000 0.671875 0.531250
0.625000 0.875000 2.000000 0.000000 0.000000 1.000000 0.671875 0.515625
0.500000 0.750000 2.000000 -0.000635 -0.000656 1.000000 0.687500 0.531250
0.375000 0.875000 2.000000 0.000090 -0.000496 1.000000 0.703125 0.515625
0.375000 0.771330 1.999869 -0.252884 -0.474570 0.843109 0.703125 0.528584
0.414905 0.750000 1.999852 -0.253782 -0.474082 0.843114 0.698137 0.531250
0.250000 0.875000 2.000000 -0.000180 -0.001022 1.000000 0.718750 0.515625
0.250000 0.819753 1.999849 -0.156506 -0.515391 0.842543 0.718750 0.522531
0.329557 0.795620 1.999956 -0.195521 -0.473286 0.858936 0.708806 0.525548
0.125000 0.875000 2.000000 -0.000300 -0.001959 0.999998 0.734375 0.515625
0.125000 0.848861 1.999880 -0.053371 -0.536750 0.842052 0.734375 0.518892
0.168006 0.844625 1.999956 -0.099963 -0.502778 0.858616 0.728999 0.519422
0.000000 0.875000 2.000000 -0.000000 -0.001586 0.999999 0.750000 0.515625
0.000000 0.861172 1.999956 0.025296 -0.525382 0.850490 0.750000 0.517354
-0.125000 0.875000 2.000000 0.000301 -0.001958 0.999998 0.765625 0.515625
-0.125000 0.848861 1.999880 0.053375 -0.536751 0.842051 0.765625 0.518892
-0.250000 0.875000 2.000000 0.000180 -0.001021 1.000000 0.781250 0.515625
-0.250000 0.819752 1.999849 0.156505 -0.515391 0.842543 0.781250 0.522531
-0.168006 0.844625 1.999956 0.099964 -0.502775 0.858617 0.771001 0.519422
-0.375000 0.875000 2.000000 -0.000090 -0.000496 1.000000 0.796875 0.515625
-0.375000 0.771329 1.999869 0.252884 -0.474570 0.843109 0.796875 0.528584
-0.329556 0.795619 1.999956 0.195521 -0.473287 0.858936 0.791194 0.525548
-0.500000 0.875000 2.000000 0.000165 -0.000183 1.000000 0.812500 0.515625
-0.500000 0.750000 2.000000 0.000635 -0.000658 1.000000 0.812500 0.531250
-0.414904 0.750000 1.999852 0.253782 -0.474082 0.843114 0.801863 0.531250
-0.625000 0.875000 2.000000 0.000000 0.000000 1.000000 0.828125 0.515625
-0.750000 0.875000 2.000000 0.000000 0.000000 1.000000 0.843750 0.515625
-0.625000 0.750000 2.000000 0.000187 -0.000197 1.000000 0.828125 0.531250
-0.875000 0.875000 2.000000 0.000000 0.000000 1.000000 0.859375 0.515625
-0.750000 0.750000 2.000000 0.000000 0.000000 1.000000 0.843750 0.531250
0.750000 0.625000 2.000000 -0.000197 -0.000187 1.000000 0.656250 0.546875
0.875000 0.625000 2.000000 0.000000 0.000000 1.000000 0.640625 0.546875
0.500000 0.698346 1.999905 -0.340643 -0.416233 0.843038 0.687500 0.537707
0.478442 0.716039 1.999956 -0.284346 -0.425895 0.858930 0.690195 0.535495
-0.478442 0.716038 1.999956 0.284348 -0.425897 0.858928 0.809805 0.535495
-0.625000 0.625000 2.000000 0.000976 -0.000976 0.999999 0.828125 0.546875
-0.589372 0.625000 1.999910 0.341998 -0.415280 0.842959 0.823672 0.546875
-0.875000 0.750000 2.000000 0.000000 0.000000 1.000000 0.859375 0.531250
-0.750000 0.625000 2.000000 0.000197 -0.000187 1.000000 0.843750 0.546875
0.875000 0.500000 2.000000 -0.000183 -0.000166 1.000000 0.640625 0.562500
0.625000 0.625000 2.000000 -0.000976 -0.000976 0.999999 0.671875 0.546875
0.625000 0.589373 1.999910 -0.415281 -0.341998 0.842959 0.671875 0.551328
0.608941 0.608941 1.999956 -0.362356 -0.362356 0.858718 0.673882 0.548882
-0.608941 0.608941 1.999956 0.362356 -0.362356 0.858718 0.826118 0.548882
-0.625000 0.589372 1.999910 0.415281 -0.341998 0.842959 0.828125 0.551329
-0.750000 0.500000 2.000000 0.000655 -0.000636 1.000000 0.843750 0.562500
-0.698346 0.500000 1.999905 0.416233 -0.340643 0.843038 0.837293 0.562500
-0.875000 0.500000 2.000000 0.000183 -0.000166 1.000000 0.859375 0.562500
0.750000 0.500000 2.000000 -0.000655 -0.000636 1.000000 0.656250 0.562500
0.750000 0.414905 1.999852 -0.474082 -0.253783 0.843113 0.656250 0.573137
0.716039 0.478442 1.999956 -0.425894 -0.284347 0.858930 0.660495 0.565195
-0.716038 0.478442 1.999956 0.425894 -0.284347 0.858930 0.839505 0.565195
-0.750000 0.414904 1.999852 0.474082 -0.253783 0.843113 0.843750 0.573137
-0.875000 0.375000 2.000000 0.000497 0.000090 1.000000 0.859375 0.578125
0.875000 0.375000 2.000000 -0.000497 0.000090 1.000000 0.640625 0.578125
0.771330 0.375000 1.999869 -0.474570 -0.252883 0.843109 0.653584 0.578125
0.795620 0.329556 1.999956 -0.473287 -0.195522 0.858936 0.650548 0.583805
-0.875000 0.250000 2.000000 0.001022 -0.000180 0.999999 0.859375 0.593750
-0.819752 0.250000 1.999849 0.515390 -0.156505 0.842543 0.852469 0.593750
-0.795619 0.329556 1.999956 0.473287 -0.195522 0.858936 0.849452 0.583805
0.875000 0.250000 2.000000 -0.001022 -0.000180 0.999999 0.640625 0.593750
0.819753 0.250000 1.999849 -0.515390 -0.156504 0.842543 0.647531 0.593750
0.844625 0.168006 1.999956 -0.502778 -0.099963 0.858616 0.644422 0.603999
-0.875000 0.125000 2.000000 0.001959 -0.000300 0.999998 0.859375 0.609375
-0.848861 0.125000 1.999880 0.536749 -0.053372 0.842052 0.856108 0.609375
-0.844625 0.168006 1.999956 0.502778 -0.099963 0.858616 0.855578 0.603999
0.861172 -0.000000 1.999956 -0.561359 -0.175214 0.808812 0.642353 0.625000
0.875000 0.125000 2.000000 -0.001959 -0.000300 0.999998 0.640625 0.609375
0.848861 0.125000 1.999880 -0.536749 -0.053371 0.842052 0.643892 0.609375
-0.875000 -0.000000 2.000000 0.001595 -0.000000 0.999999 0.859375 0.625000
-0.861172 -0.000000 1.999956 0.525389 0.025295 0.850486 0.857647 0.625000
0.875000 -0.125000 2.000000 -0.001959 0.000300 0.999998 0.640625 0.640625
0.875000 -0.000000 2.000000 -0.001586 -0.000000 0.999999 0.640625 0.625000
-0.875000 -0.125000 2.000000 0.001956 0.000301 0.999998 0.859375 0.640625
-0.848861 -0.125000 1.999880 0.536748 0.053373 0.842053 0.856108 0.640625
0.848861 -0.125000 1.999880 -0.536749 0.053371 0.842052 0.643892 0.640625
0.844625 -0.168007 1.999956 -0.502778 0.099963 0.858616 0.644422 0.646001
-0.875000 -0.250000 2.000000 0.001022 0.000179 0.999999 0.859375 0.656250
-0.819753 -0.250000 1.999849 0.515391 0.156504 0.842543 0.852469 0.656250
-0.844625 -0.168006 1.999956 0.502776 0.099963 0.858617 0.855578 0.646001
0.875000 -0.250000 2.000000 -0.001022 0.000180 1.000000 0.640625 0.656250
0.819753 -0.250000 1.999849 -0.515390 0.156505 0.842543 0.647531 0.656250
0.795619 -0.329557 1.999956 -0.473287 0.195522 0.858936 0.650548 0.666195
-0.875000 -0.375000 2.000000 0.000497 -0.000090 1.000000 0.859375 0.671875
-0.771329 -0.375000 1.999869 0.474571 0.252884 0.843109 0.846416 0.671875
-0.795619 -0.329556 1.999956 0.473287 0.195522 0.858936 0.849452 0.666195
0.750000 -0.414905 1.999852 -0.474082 0.253783 0.843113 0.656250 0.676863
0.750000 -0.500000 2.000000 -0.000655 0.000636 1.000000 0.656250 0.687500
0.875000 -0.500000 2.000000 -0.000183 0.000166 1.000000 0.640625 0.687500
0.716039 -0.478442 1.999956 -0.425895 0.284347 0.858930 0.660495 0.684805
-0.750000 -0.500000 2.000000 0.000657 0.000636 1.000000 0.843750 0.687500
-0.716039 -0.478442 1.999956 0.425897 0.284349 0.858928 0.839505 0.684805
-0.750000 -0.414904 1.999852 0.474083 0.253782 0.843113 0.843750 0.676863
-0.875000 -0.500000 2.000000 0.000183 0.000166 1.000000 0.859375 0.687500
0.875000 -0.625000 2.000000 0.000000 0.000000 1.000000 0.640625 0.703125
0.750000 -0.625000 2.000000 -0.000197 0.000187 1.000000 0.656250 0.703125
0.698346 -0.500000 1.999905 -0.416233 0.340643 0.843038 0.662707 0.687500
0.608941 -0.608941 1.999956 -0.362357 0.362356 0.858717 0.673882 0.701118
0.625000 -0.625000 2.000000 -0.000976 0.000976 0.999999 0.671875 0.703125
0.625000 -0.589373 1.999910 -0.415281 0.341999 0.842959 0.671875 0.698672
-0.625000 -0.625000 2.000000 0.000976 0.000976 0.999999 0.828125 0.703125
-0.608941 -0.608941 1.999956 0.362356 0.362356 0.858718 0.826118 0.701118
-0.625000 -0.589372 1.999910 0.415281 0.341998 0.842959 0.828125 0.698672
-0.750000 -0.625000 2.000000 0.000197 0.000187 1.000000 0.843750 0.703125
-0.875000 -0.625000 2.000000 0.000000 0.000000 1.000000 0.859375 0.703125
0.875000 -0.750000 2.000000 0.000000 0.000000 1.000000 0.640625 0.718750
0.750000 -0.750000 2.000000 0.000000 0.000000 1.000000 0.656250 0.718750
0.625000 -0.750000 2.000000 -0.000187 0.000197 1.000000 0.671875 0.718750
0.589373 -0.625000 1.999910 -0.341998 0.415280 0.842959 0.676328 0.703125
0.500000 -0.750000 2.000000 -0.000635 0.000656 1.000000 0.687500 0.718750
0.478442 -0.716039 1.999956 -0.284346 0.425895 0.858930 0.690195 0.714505
0.414905 -0.750000 1.999852 -0.253782 0.474082 0.843114 0.698137 0.718750
-0.500000 -0.750000 2.000000 0.000636 0.000655 1.000000 0.812500 0.718750
-0.478442 -0.716039 1.999956 0.284347 0.425894 0.858930 0.809805 0.714505
-0.500000 -0.698346 1.999905 0.340643 0.416233 0.843038 0.812500 0.712293
-0.625000 -0.750000 2.000000 0.000187 0.000197 1.000000 0.828125 0.718750
-0.589372 -0.625000 1.999910 0.341998 0.415281 0.842958 0.823672 0.703125
-0.750000 -0.750000 2.000000 0.000000 0.000000 1.000000 0.843750 0.718750
0.875000 -0.875000 2.000000 0.000000 0.000000 1.000000 0.640625 0.734375
0.750000 -0.875000 2.000000 0.000000 0.000000 1.000000 0.656250 0.734375
0.500000 -0.875000 2.000000 -0.000165 0.000183 1.000000 0.687500 0.734375
0.625000 -0.875000 2.000000 0.000000 0.000000 1.000000 0.671875 0.734375
0.375000 -0.875000 2.000000 0.000090 0.000496 1.000000 0.703125 0.734375
0.375000 -0.771329 1.999869 -0.252884 0.474570 0.843109 0.703125 0.721416
0.329556 -0.795620 1.999956 -0.195521 0.473287 0.858936 0.708806 0.724452
0.250000 -0.875000 2.000000 -0.000180 0.001021 1.000000 0.718750 0.734375
0.250000 -0.819753 1.999849 -0.156505 0.515391 0.842543 0.718750 0.727469
0.168006 -0.844625 1.999956 -0.099963 0.502775 0.858618 0.728999 0.730578
0.000000 -0.861172 1.999956 -0.025295 0.525382 0.850491 0.750000 0.732647
0.125000 -0.875000 2.000000 -0.000300 0.001956 0.999998 0.734375 0.734375
0.125000 -0.848861 1.999880 -0.053373 0.536748 0.842053 0.734375 0.731108
0.000000 -0.875000 2.000000 0.000000 0.001586 0.999999 0.750000 0.734375
-0.000000 -0.861172 1.999956 0.025295 0.525382 0.850491 0.750000 0.732647
-0.125000 -0.875000 2.000000 0.000300 0.001959 0.999998 0.765625 0.734375
-0.125000 -0.848861 1.999880 0.053371 0.536750 0.842052 0.765625 0.731108
-0.168006 -0.844625 1.999956 0.099963 0.502778 0.858616 0.771001 0.730578
-0.250000 -0.875000 2.000000 0.000180 0.001022 0.999999 0.781250 0.734375
-0.250000 -0.819753 1.999849 0.156505 0.515391 0.842543 0.781250 0.727469
-0.329556 -0.795619 1.999956 0.195522 0.473287 0.858936 0.791195 0.724452
-0.375000 -0.875000 2.000000 -0.000090 0.000497 1.000000 0.796875 0.734375
-0.375000 -0.771329 1.999869 0.252884 0.474571 0.843109 0.796875 0.721416
-0.414904 -0.750000 1.999852 0.253783 0.474083 0.843113 0.801863 0.718750
-0.500000 -0.875000 2.000000 0.000166 0.000183 1.000000 0.812500 0.734375
-0.750000 -0.875000 2.000000 0.000000 0.000000 1.000000 0.843750 0.734375
-0.625000 -0.875000 2.000000 0.000000 0.000000 1.000000 0.828125 0.734375
-0.875000 -0.750000 2.000000 0.000000 0.000000 1.000000 0.859375 0.718750
0.875000 1.000000 2.000000 0.000000 0.000000 1.000000 0.640625 0.500000
1.000000 0.875000 2.000000 0.000000 0.000000 1.000000 0.625000 0.515625
1.000000 1.000000 2.000000 -0.577350 -0.577350 0.577350 0.625000 0.500000
0.750000 1.000000 2.000000 0.000000 0.000000 1.000000 0.656250 0.500000
0.500000 1.000000 2.000000 0.000000 0.000000 1.000000 0.687500 0.500000
0.625000 1.000000 2.000000 0.000000 0.000000 1.000000 0.671875 0.500000
0.375000 1.000000 2.000000 0.000000 0.000000 1.000000 0.703125 0.500000
0.500000 0.875000 2.000000 -0.000165 -0.000183 1.000000 0.687500 0.515625
0.250000 1.000000 2.000000 0.000000 0.000000 1.000000 0.718750 0.500000
0.125000 1.000000 2.000000 0.000000 0.000000 1.000000 0.734375 0.500000
-0.125000 1.000000 2.000000 0.000000 0.000000 1.000000 0.765625 0.500000
0.000000 1.000000 2.000000 0.000000 0.000000 1.000000 0.750000 0.500000
-0.250000 1.000000 2.000000 0.000000 0.000000 1.000000 0.781250 0.500000
-0.500000 1.000000 2.000000 0.000000 0.000000 1.000000 0.812500 0.500000
-0.375000 1.000000 2.000000 0.000000 0.000000 1.000000 0.796875 0.500000
-0.625000 1.000000 2.000000 0.000000 0.000000 1.000000 0.828125 0.500000
-0.875000 1.000000 2.000000 0.000000 0.000000 1.000000 0.859375 0.500000
-0.750000 1.000000 2.000000 0.000000 0.000000 1.000000 0.843750 0.500000
-1.000000 0.875000 2.000000 0.000000 0.000000 1.000000 0.875000 0.515625
-1.000000 0.750000 2.000000 0.000000 0.000000 1.000000 0.875000 0.531250
-0.875000 0.625000 2.000000 0.000000 0.000000 1.000000 0.859375 0.546875
-1.000000 0.500000 2.000000 0.000000 0.000000 1.000000 0.875000 0.562500
-1.000000 0.250000 2.000000 0.000000 0.000000 1.000000 0.875000 0.593750
-1.000000 0.125000 2.000000 0.000000 0.000000 1.000000 0.875000 0.609375
-1.000000 -0.125000 2.000000 0.000000 0.000000 1.000000 0.875000 0.640625
-1.000000 -0.250000 2.000000 0.000000 0.000000 1.000000 0.875000 0.656250
-1.000000 -0.375000 2.000000 0.000000 0.000000 1.000000 0.875000 0.671875
-1.000000 -0.625000 2.000000 0.000000 0.000000 1.000000 0.875000 0.703125
-1.000000 -0.750000 2.000000 0.000000 0.000000 1.000000 0.875000 0.718750
-0.875000 -0.875000 2.000000 0.000000 0.000000 1.000000 0.859375 0.734375
-1.000000 -0.875000 2.000000 0.000000 0.000000 1.000000 0.875000 0.734375
-0.875000 -1.000000 2.000000 0.000000 0.000000 1.000000 0.859375 0.750000
-0.750000 -1.000000 2.000000 0.000000 0.000000 1.000000 0.843750 0.750000
-0.625000 -1.000000 2.000000 0.000000 0.000000 1.000000 0.828125 0.750000
-0.500000 -1.000000 2.000000 0.000000 0.000000 1.000000 0.812500 0.750000
-0.375000 -1.000000 2.000000 0.000000 0.000000 1.000000 0.796875 0.750000
-0.250000 -1.000000 2.000000 0.000000 0.000000 1.000000 0.781250 0.750000
-0.125000 -1.000000 2.000000 0.000000 0.000000 1.000000 0.765625 0.750000
0.000000 -1.000000 2.000000 0.000000 0.000000 1.000000 0.750000 0.750000
0.125000 -1.000000 2.000000 0.000000 0.000000 1.000000 0.734375 0.750000
0.250000 -1.000000 2.000000 0.000000 0.000000 1.000000 0.718750 0.750000
0.375000 -1.000000 2.000000 0.000000 0.000000 1.000000 0.703125 0.750000
0.500000 -1.000000 2.000000 0.000000 0.000000 1.000000 0.687500 0.750000
0.625000 -1.000000 2.000000 0.000000 0.000000 1.000000 0.671875 0.750000
0.750000 -1.000000 2.000000 0.000000 0.000000 1.000000 0.656250 0.750000
0.875000 -1.000000 2.000000 0.000000 0.000000 1.000000 0.640625 0.750000
1.000000 -0.875000 2.000000 0.000000 0.000000 1.000000 0.625000 0.734375
1.000000 -1.000000 2.000000 -0.577350 0.577350 0.577350 0.625000 0.750000
1.000000 -0.750000 2.000000 0.000000 0.000000 1.000000 0.625000 0.718750
1.000000 -0.625000 2.000000 0.000000 0.000000 1.000000 0.625000 0.703125
1.000000 -0.500000 2.000000 0.000000 0.000000 1.000000 0.625000 0.687500
1.000000 -0.375000 2.000000 0.000000 0.000000 1.000000 0.625000 0.671875
1.000000 -0.250000 2.000000 0.000000 0.000000 1.000000 0.625000 0.656250
0.875000 -0.375000 2.000000 -0.000497 -0.000090 1.000000 0.640625 0.671875
1.000000 -0.125000 2.000000 0.000000 0.000000 1.000000 0.625000 0.640625
1.000000 0.000000 2.000000 0.000000 0.000000 1.000000 0.625000 0.625000
1.000000 0.125000 2.000000 0.000000 0.000000 1.000000 0.625000 0.609375
1.000000 0.250000 2.000000 0.000000 0.000000 1.000000 0.625000 0.593750
1.000000 0.375000 2.000000 0.000000 0.000000 1.000000 0.625000 0.578125
1.000000 0.500000 2.000000 0.000000 0.000000 1.000000 0.625000 0.562500
1.000000 0.625000 2.000000 0.000000 0.000000 1.000000 0.625000 0.546875
1.000000 0.750000 2.000000 0.000000 0.000000 1.000000 0.625000 0.531250
0.000000 0.555570 1.351068 0.000001 -0.896119 0.443815 0.750000 0.187500
0.137950 0.693520 1.676557 -0.176418 -0.886913 0.426922 0.718750 0.250000
0.000000 0.707107 1.676557 0.000001 -0.904288 0.426922 0.750000 0.250000
0.074658 0.375330 1.023280 -0.165600 -0.832531 0.528648 0.718750 0.125000
0.000000 0.382683 1.023280 0.000000 -0.848841 0.528649 0.750000 0.125000
0.038060 0.191342 0.767895 -0.128897 -0.648018 0.750638 0.718750 0.062500
0.000000 0.195090 0.767895 0.000002 -0.660713 0.750638 0.750000 0.062500
0.000000 -0.000000 0.664995 0.000000 0.000000 1.000000 0.734375 0.000000
0.162212 0.815493 1.936545 -0.176319 -0.886465 0.427891 0.718750 0.312500
0.168006 0.844625 1.999956 -0.099963 -0.502778 0.858616 0.718750 0.332589
0.125000 0.848861 1.999880 -0.053371 -0.536750 0.842052 0.726720 0.332589
0.000000 0.831470 1.936545 0.000001 -0.903862 0.427824 0.750000 0.312500
0.318190 0.768178 1.936545 -0.345875 -0.835028 0.427900 0.687500 0.312500
0.329557 0.795620 1.999956 -0.195521 -0.473286 0.858936 0.687500 0.332589
0.250000 0.819753 1.999849 -0.156506 -0.515391 0.842543 0.702888 0.332589
0.270598 0.653281 1.676557 -0.346056 -0.835454 0.426922 0.687500 0.250000
0.212608 0.513280 1.351068 -0.342930 -0.827905 0.443815 0.687500 0.187500
0.108386 0.544895 1.351068 -0.174824 -0.878900 0.443815 0.718750 0.187500
0.146447 0.353553 1.023280 -0.324837 -0.784227 0.528648 0.687500 0.125000
0.074658 0.180240 0.767895 -0.252844 -0.610420 0.750638 0.687500 0.062500
0.000000 -0.000000 0.664995 0.000000 0.000000 1.000000 0.703125 0.000000
0.212608 0.318190 1.023280 -0.471591 -0.705785 0.528648 0.656250 0.125000
0.000000 -0.000000 0.664995 0.000000 0.000000 1.000000 0.671875 0.000000
0.108386 0.162212 0.767895 -0.367073 -0.549363 0.750638 0.656250 0.062500
0.414905 0.750000 1.999852 -0.253782 -0.474082 0.843114 0.669575 0.332589
0.375000 0.771330 1.999869 -0.252884 -0.474570 0.843109 0.677987 0.332589
0.392848 0.587938 1.676557 -0.502396 -0.751888 0.426922 0.656250 0.250000
0.308658 0.461940 1.351068 -0.497857 -0.745095 0.443815 0.656250 0.187500
0.500000 0.500000 1.676557 -0.639429 -0.639428 0.426922 0.625000 0.250000
0.461940 0.691342 1.936545 -0.502171 -0.751492 0.427883 0.656250 0.312500
0.270598 0.270598 1.023280 -0.600221 -0.600221 0.528648 0.625000 0.125000
0.137950 0.137950 0.767895 -0.467195 -0.467195 0.750638 0.625000 0.062500
0.000000 -0.000000 0.664995 0.000000 0.000000 1.000000 0.640625 0.000000
0.589373 0.625000 1.999910 -0.341998 -0.415280 0.842959 0.629657 0.332589
0.500000 0.698346 1.999905 -0.340643 -0.416233 0.843038 0.651117 0.332589
0.587938 0.587938 1.936545 -0.639115 -0.639114 0.427861 0.625000 0.312500
0.000000 -0.000000 0.664995 0.000000 0.000000 1.000000 0.609375 0.000000
0.162212 0.108386 0.767895 -0.549363 -0.367073 0.750638 0.593750 0.062500
0.698346 0.500000 1.999905 -0.416233 -0.340642 0.843038 0.598883 0.332589
0.625000 0.589373 1.999910 -0.415281 -0.341998 0.842959 0.620343 0.332589
0.587938 0.392847 1.676557 -0.751888 -0.502396 0.426922 0.593750 0.250000
0.392848 0.392847 1.351068 -0.633652 -0.633651 0.443815 0.625000 0.187500
0.318190 0.212608 1.023280 -0.705785 -0.471591 0.528648 0.593750 0.125000
0.461940 0.308658 1.351068 -0.745095 -0.497857 0.443815 0.593750 0.187500
0.653281 0.270598 1.676557 -0.835454 -0.346056 0.426922 0.562500 0.250000
0.353554 0.146447 1.023280 -0.784227 -0.324837 0.528649 0.562500 0.125000
0.000000 -0.000000 0.664995 0.000000 0.000000 1.000000 0.578125 0.000000
0.180240 0.074658 0.767895 -0.610420 -0.252844 0.750638 0.562500 0.062500
0.750000 0.414905 1.999852 -0.474082 -0.253783 0.843113 0.580425 0.332589
0.768178 0.318190 1.936545 -0.835028 -0.345875 0.427900 0.562500 0.312500
0.771330 0.375000 1.999869 -0.474570 -0.252883 0.843109 0.572013 0.332589
0.691342 0.461940 1.936545 -0.751492 -0.502171 0.427883 0.593750 0.312500
0.815493 0.162212 1.936545 -0.886465 -0.176319 0.427891 0.531250 0.312500
0.844625 0.168006 1.999956 -0.502778 -0.099963 0.858616 0.531250 0.332589
0.819753 0.250000 1.999849 -0.515390 -0.156504 0.842543 0.547112 0.332589
0.693520 0.137950 1.676557 -0.886913 -0.176418 0.426922 0.531250 0.250000
0.513280 0.212607 1.351068 -0.827906 -0.342930 0.443815 0.562500 0.187500
0.544895 0.108386 1.351068 -0.878900 -0.174824 0.443815 0.531250 0.187500
0.375330 0.074658 1.023280 -0.832531 -0.165601 0.528649 0.531250 0.125000
0.000000 -0.000000 0.664995 0.000000 0.000000 1.000000 0.546875 0.000000
0.191342 0.038060 0.767895 -0.648018 -0.128899 0.750638 0.531250 0.062500
0.707107 -0.000000 1.676557 -0.904288 0.000000 0.426922 0.500000 0.250000
0.555570 -0.000000 1.351068 -0.896119 0.000000 0.443815 0.500000 0.187500
0.195090 -0.000000 0.767895 -0.660713 -0.000000 0.750638 0.500000 0.062500
0.000000 -0.000000 0.664995 0.000000 0.000000 1.000000 0.515625 0.000000
0.831469 -0.000000 1.936545 -0.903862 0.000000 0.427825 0.500000 0.312500
0.861172 -0.000000 1.999956 -0.561359 -0.175214 0.808812 0.500000 0.332589
0.848861 0.125000 1.999880 -0.536749 -0.053371 0.842052 0.523280 0.332589
0.815493 -0.162212 1.936545 -0.886465 0.176319 0.427891 0.468750 0.312500
0.844625 -0.168007 1.999956 -0.502778 0.099963 0.858616 0.468750 0.332589
0.848861 -0.125000 1.999880 -0.536749 0.053371 0.842052 0.476720 0.332589
0.693520 -0.137950 1.676557 -0.886913 0.176418 0.426922 0.468750 0.250000
0.375330 -0.074658 1.023280 -0.832531 0.165601 0.528648 0.468750 0.125000
0.382684 -0.000000 1.023280 -0.848841 -0.000000 0.528649 0.500000 0.125000
0.191342 -0.038060 0.767895 -0.648018 0.128899 0.750638 0.468750 0.062500
0.000000 -0.000000 0.664995 0.000000 0.000000 1.000000 0.484375 0.000000
0.513280 -0.212608 1.351068 -0.827905 0.342930 0.443815 0.437500 0.187500
0.544895 -0.108386 1.351068 -0.878900 0.174824 0.443815 0.468750 0.187500
0.353554 -0.146447 1.023280 -0.784227 0.324838 0.528649 0.437500 0.125000
0.000000 -0.000000 0.664995 0.000000 0.000000 1.000000 0.453125 0.000000
0.180240 -0.074658 0.767895 -0.610419 0.252846 0.750638 0.437500 0.062500
0.768178 -0.318190 1.936545 -0.835028 0.345875 0.427900 0.437500 0.312500
0.795619 -0.329557 1.999956 -0.473287 0.195522 0.858936 0.437500 0.332589
0.819753 -0.250000 1.999849 -0.515390 0.156505 0.842543 0.452888 0.332589
0.653281 -0.270598 1.676557 -0.835454 0.346056 0.426922 0.437500 0.250000
0.750000 -0.414905 1.999852 -0.474082 0.253783 0.843113 0.419575 0.332589
0.771329 -0.375000 1.999869 -0.474571 0.252883 0.843109 0.427987 0.332589
0.587938 -0.392847 1.676557 -0.751888 0.502396 0.426922 0.406250 0.250000
0.318190 -0.212608 1.023280 -0.705785 0.471591 0.528649 0.406250 0.125000
0.162212 -0.108386 0.767895 -0.549363 0.367074 0.750638 0.406250 0.062500
0.000000 -0.000000 0.664995 0.000000 0.000000 1.000000 0.421875 0.000000
0.270598 -0.270598 1.023280 -0.600222 0.600221 0.528649 0.375000 0.125000
0.461940 -0.308658 1.351068 -0.745095 0.497857 0.443815 0.406250 0.187500
0.000000 -0.000000 0.664995 0.000000 0.000000 1.000000 0.390625 0.000000
0.137950 -0.137950 0.767895 -0.467195 0.467195 0.750638 0.375000 0.062500
0.625000 -0.589373 1.999910 -0.415281 0.341999 0.842959 0.379657 0.332589
0.698346 -0.500000 1.999905 -0.416233 0.340643 0.843038 0.401117 0.332589
0.587938 -0.587938 1.936545 -0.639115 0.639115 0.427861 0.375000 0.312500
0.500000 -0.500000 1.676557 -0.639428 0.639429 0.426922 0.375000 0.250000
0.691342 -0.461940 1.936545 -0.751492 0.502171 0.427883 0.406250 0.312500
0.500000 -0.698346 1.999905 -0.340643 0.416233 0.843038 0.348883 0.332589
0.589373 -0.625000 1.999910 -0.341998 0.415280 0.842959 0.370343 0.332589
0.392847 -0.587938 1.676557 -0.502396 0.751888 0.426922 0.343750 0.250000
0.392847 -0.392847 1.351068 -0.633651 0.633652 0.443815 0.375000 0.187500
0.212608 -0.318190 1.023280 -0.471591 0.705785 0.528649 0.343750 0.125000
0.000000 -0.000000 0.664995 0.000000 0.000000 1.000000 0.359375 0.000000
0.108386 -0.162212 0.767895 -0.367073 0.549363 0.750638 0.343750 0.062500
0.146447 -0.353554 1.023280 -0.324837 0.784227 0.528649 0.312500 0.125000
0.000000 -0.000000 0.664995 0.000000 0.000000 1.000000 0.328125 0.000000
0.074658 -0.180240 0.767895 -0.252844 0.610420 0.750638 0.312500 0.062500
0.318190 -0.768178 1.936545 -0.345875 0.835029 0.427899 0.312500 0.312500
0.375000 -0.771329 1.999869 -0.252884 0.474570 0.843109 0.322013 0.332589
0.414905 -0.750000 1.999852 -0.253782 0.474082 0.843114 0.330425 0.332589
0.270598 -0.653281 1.676557 -0.346056 0.835454 0.426922 0.312500 0.250000
0.461940 -0.691342 1.936545 -0.502171 0.751492 0.427882 0.343750 0.312500
0.308658 -0.461940 1.351068 -0.497857 0.745095 0.443815 0.343750 0.187500
0.137950 -0.693520 1.676557 -0.176418 0.886913 0.426922 0.281250 0.250000
0.212607 -0.513280 1.351068 -0.342930 0.827906 0.443815 0.312500 0.187500
0.074658 -0.375330 1.023280 -0.165600 0.832531 0.528649 0.281250 0.125000
0.000000 -0.000000 0.664995 0.000000 0.000000 1.000000 0.296875 0.000000
0.038060 -0.191342 0.767895 -0.128899 0.648018 0.750638 0.281250 0.062500
0.162212 -0.815493 1.936545 -0.176319 0.886466 0.427890 0.281250 0.312500
0.168006 -0.844625 1.999956 -0.099963 0.502775 0.858618 0.281250 0.332589
0.250000 -0.819753 1.999849 -0.156505 0.515391 0.842543 0.297112 0.332589
0.000000 -0.000000 0.664995 0.000000 0.000000 1.000000 0.265625 0.000000
-0.000000 -0.195090 0.767895 -0.000000 0.660714 0.750638 0.250000 0.062500
0.000000 -0.861172 1.999956 -0.025295 0.525382 0.850491 0.250000 0.332589
0.125000 -0.848861 1.999880 -0.053373 0.536748 0.842053 0.273280 0.332589
-0.000000 -0.831469 1.936545 0.000000 0.903862 0.427824 0.250000 0.312500
0.000000 -0.707107 1.676557 0.000000 0.904289 0.426922 0.250000 0.250000
0.108386 -0.544895 1.351068 -0.174824 0.878900 0.443815 0.281250 0.187500
0.000000 -0.382684 1.023280 0.000000 0.848841 0.528649 0.250000 0.125000
-0.137950 -0.693520 1.676557 0.176418 0.886913 0.426922 0.218750 0.250000
-0.000000 -0.555570 1.351068 0.000000 0.896119 0.443815 0.250000 0.187500
-0.074658 -0.375330 1.023280 0.165601 0.832530 0.528649 0.218750 0.125000
-0.038060 -0.191342 0.767895 0.128899 0.648018 0.750638 0.218750 0.062500
0.000000 -0.000000 0.664995 0.000000 0.000000 1.000000 0.234375 0.000000
-0.162212 -0.815493 1.936545 0.176319 0.886466 0.427891 0.218750 0.312500
-0.168006 -0.844625 1.999956 0.099963 0.502778 0.858616 0.218750 0.332589
-0.125000 -0.848861 1.999880 0.053371 0.536750 0.842052 0.226720 0.332589
0.000000 -0.000000 0.664995 0.000000 0.000000 1.000000 0.203125 0.000000
-0.074658 -0.180240 0.767895 0.252843 0.610421 0.750638 0.187500 0.062500
-0.318190 -0.768178 1.936545 0.345875 0.835028 0.427900 0.187500 0.312500
-0.329556 -0.795619 1.999956 0.195522 0.473287 0.858936 0.187500 0.332589
-0.250000 -0.819753 1.999849 0.156505 0.515391 0.842543 0.202888 0.332589
-0.270598 -0.653281 1.676557 0.346056 0.835454 0.426922 0.187500 0.250000
-0.108386 -0.544895 1.351068 0.174824 0.878900 0.443815 0.218750 0.187500
-0.212608 -0.513280 1.351068 0.342930 0.827905 0.443815 0.187500 0.187500
-0.146447 -0.353553 1.023280 0.324837 0.784226 0.528649 0.187500 0.125000
-0.392847 -0.587938 1.676557 0.502396 0.751888 0.426922 0.156250 0.250000
-0.212608 -0.318190 1.023280 0.471591 0.705785 0.528649 0.156250 0.125000
0.000000 -0.000000 0.664995 0.000000 0.000000 1.000000 0.171875 0.000000
-0.108386 -0.162212 0.767895 0.367071 0.549364 0.750638 0.156250 0.062500
-0.461940 -0.691342 1.936545 0.502171 0.751492 0.427882 0.156250 0.312500
-0.478442 -0.716039 1.999956 0.284347 0.425894 0.858930 0.156250 0.332589
-0.414904 -0.750000 1.999852 0.253783 0.474083 0.843113 0.169575 0.332589
-0.589372 -0.625000 1.999910 0.341998 0.415281 0.842958 0.129657 0.332589
-0.500000 -0.698346 1.999905 0.340643 0.416233 0.843038 0.151117 0.332589
-0.587938 -0.587938 1.936545 0.639115 0.639115 0.427861 0.125000 0.312500
-0.500000 -0.500000 1.676557 0.639429 0.639429 0.426922 0.125000 0.250000
-0.308658 -0.461940 1.351068 0.497857 0.745095 0.443815 0.156250 0.187500
-0.392847 -0.392847 1.351068 0.633652 0.633651 0.443815 0.125000 0.187500
-0.270598 -0.270598 1.023280 0.600221 0.600221 0.528648 0.125000 0.125000
0.000000 -0.000000 0.664995 0.000000 0.000000 1.000000 0.140625 0.000000
-0.137950 -0.137950 0.767895 0.467196 0.467194 0.750639 0.125000 0.062500
-0.587938 -0.392847 1.676557 0.751888 0.502396 0.426922 0.093750 0.250000
-0.461940 -0.308658 1.351068 0.745095 0.497857 0.443815 0.093750 0.187500
-0.318190 -0.212608 1.023280 0.705785 0.471590 0.528649 0.093750 0.125000
0.000000 -0.000000 0.664995 0.000000 0.000000 1.000000 0.109375 0.000000
-0.162212 -0.108386 0.767895 0.549364 0.367073 0.750638 0.093750 0.062500
-0.698346 -0.500000 1.999905 0.416233 0.340643 0.843037 0.098883 0.332589
-0.625000 -0.589372 1.999910 0.415281 0.341998 0.842959 0.120343 0.332589
-0.771329 -0.375000 1.999869 0.474571 0.252884 0.843109 0.072013 0.332589
-0.750000 -0.414904 1.999852 0.474083 0.253782 0.843113 0.080425 0.332589
-0.768177 -0.318190 1.936545 0.835028 0.345875 0.427900 0.062500 0.312500
-0.653281 -0.270598 1.676557 0.835454 0.346056 0.426922 0.062500 0.250000
-0.691341 -0.461940 1.936545 0.751492 0.502171 0.427883 0.093750 0.312500
-0.513280 -0.212607 1.351068 0.827906 0.342930 0.443815 0.062500 0.187500
-0.353553 -0.146447 1.023280 0.784227 0.324837 0.528649 0.062500 0.125000
0.000000 -0.000000 0.664995 0.000000 0.000000 1.000000 0.078125 0.000000
-0.180240 -0.074658 0.767895 0.610419 0.252845 0.750638 0.062500 0.062500
-0.375330 -0.074658 1.023280 0.832531 0.165601 0.528649 0.031250 0.125000
0.000000 -0.000000 0.664995 0.000000 0.000000 1.000000 0.046875 0.000000
-0.191342 -0.038060 0.767895 0.648018 0.128899 0.750638 0.031250 0.062500
-0.815493 -0.162212 1.936545 0.886466 0.176319 0.427890 0.031250 0.312500
-0.844625 -0.168006 1.999956 0.502776 0.099963 0.858617 0.031250 0.332589
-0.819753 -0.250000 1.999849 0.515391 0.156504 0.842543 0.047112 0.332589
-0.693520 -0.137950 1.676557 0.886913 0.176418 0.426922 0.031250 0.250000
-0.861172 -0.000000 1.999956 0.525389 0.025295 0.850486 0.000000 0.332589
-0.848861 -0.125000 1.999880 0.536748 0.053373 0.842053 0.023280 0.332589
-0.831469 -0.000000 1.936545 0.903862 -0.000000 0.427824 0.000000 0.312500
-0.707107 -0.000000 1.676557 0.904289 -0.000000 0.426922 0.000000 0.250000
-0.544895 -0.108386 1.351068 0.878900 0.174823 0.443815 0.031250 0.187500
-0.382683 -0.000000 1.023280 0.848841 0.000000 0.528648 0.000000 0.125000
0.000000 -0.000000 0.664995 0.000000 0.000000 1.000000 0.015625 0.000000
-0.195090 -0.000000 0.767895 0.660713 -0.000000 0.750638 0.000000 0.062500
-0.195090 -0.000000 0.767895 0.660713 -0.000000 0.750638 1.000000 0.062500
-0.375330 0.074658 1.023280 0.832531 -0.165600 0.528649 0.968750 0.125000
-0.382683 -0.000000 1.023280 0.848841 0.000000 0.528648 1.000000 0.125000
0.000000 -0.000000 0.664995 0.000000 0.000000 1.000000 0.984375 0.000000
-0.191342 0.038060 0.767895 0.648018 -0.128899 0.750638 0.968750 0.062500
-0.815493 0.162212 1.936545 0.886466 -0.176319 0.427891 0.968750 0.312500
-0.844625 0.168006 1.999956 0.502778 -0.099963 0.858616 0.968750 0.332589
-0.848861 0.125000 1.999880 0.536749 -0.053372 0.842052 0.976720 0.332589
-0.693520 0.137950 1.676557 0.886913 -0.176418 0.426922 0.968750 0.250000
-0.831469 -0.000000 1.936545 0.903862 -0.000000 0.427824 1.000000 0.312500
-0.707107 -0.000000 1.676557 0.904289 -0.000000 0.426922 1.000000 0.250000
-0.555570 0.000000 1.351068 0.896119 0.000000 0.443815 1.000000 0.187500
-0.768177 0.318189 1.936545 0.835028 -0.345875 0.427900 0.937500 0.312500
-0.795619 0.329556 1.999956 0.473287 -0.195522 0.858936 0.937500 0.332589
-0.819752 0.250000 1.999849 0.515390 -0.156505 0.842543 0.952888 0.332589
-0.653281 0.270598 1.676557 0.835454 -0.346056 0.426922 0.937500 0.250000
-0.544895 0.108386 1.351068 0.878900 -0.174824 0.443815 0.968750 0.187500
-0.353553 0.146446 1.023280 0.784227 -0.324837 0.528649 0.937500 0.125000
0.000000 -0.000000 0.664995 0.000000 0.000000 1.000000 0.953125 0.000000
-0.180240 0.074658 0.767895 0.610419 -0.252844 0.750638 0.937500 0.062500
-0.318189 0.212607 1.023280 0.705785 -0.471591 0.528649 0.906250 0.125000
0.000000 -0.000000 0.664995 0.000000 0.000000 1.000000 0.921875 0.000000
-0.162212 0.108386 0.767895 0.549363 -0.367073 0.750638 0.906250 0.062500
-0.750000 0.414904 1.999852 0.474082 -0.253783 0.843113 0.919575 0.332589
-0.771329 0.375000 1.999869 0.474571 -0.252884 0.843109 0.927987 0.332589
-0.587938 0.392847 1.676557 0.751889 -0.502396 0.426922 0.906250 0.250000
-0.513280 0.212607 1.351068 0.827906 -0.342930 0.443815 0.937500 0.187500
-0.461939 0.308658 1.351068 0.745095 -0.497857 0.443815 0.906250 0.187500
-0.500000 0.500000 1.676557 0.639429 -0.639429 0.426922 0.875000 0.250000
-0.691341 0.461939 1.936545 0.751492 -0.502171 0.427882 0.906250 0.312500
-0.392847 0.392847 1.351068 0.633651 -0.633652 0.443815 0.875000 0.187500
-0.270598 0.270598 1.023280 0.600221 -0.600221 0.528649 0.875000 0.125000
0.000000 -0.000000 0.664995 0.000000 0.000000 1.000000 0.890625 0.000000
-0.137950 0.137950 0.767895 0.467195 -0.467195 0.750638 0.875000 0.062500
-0.625000 0.589372 1.999910 0.415281 -0.341998 0.842959 0.879657 0.332589
-0.698346 0.500000 1.999905 0.416233 -0.340643 0.843038 0.901117 0.332589
-0.587937 0.587937 1.936545 0.639115 -0.639115 0.427861 0.875000 0.312500
0.000000 -0.000000 0.664995 0.000000 0.000000 1.000000 0.859375 0.000000
-0.108386 0.162212 0.767895 0.367073 -0.549363 0.750638 0.843750 0.062500
-0.461939 0.691341 1.936545 0.502171 -0.751493 0.427882 0.843750 0.312500
-0.478442 0.716038 1.999956 0.284348 -0.425897 0.858928 0.843750 0.332589
-0.500000 0.698346 1.999905 0.340644 -0.416233 0.843037 0.848883 0.332589
-0.392847 0.587937 1.676557 0.502396 -0.751888 0.426922 0.843750 0.250000
-0.212607 0.318189 1.023280 0.471591 -0.705785 0.528649 0.843750 0.125000
-0.270598 0.653281 1.676557 0.346056 -0.835454 0.426922 0.812500 0.250000
-0.308658 0.461939 1.351068 0.497857 -0.745095 0.443815 0.843750 0.187500
-0.146446 0.353553 1.023280 0.324837 -0.784227 0.528649 0.812500 0.125000
-0.074658 0.180240 0.767895 0.252844 -0.610420 0.750638 0.812500 0.062500
0.000000 -0.000000 0.664995 0.000000 0.000000 1.000000 0.828125 0.000000
-0.318189 0.768177 1.936544 0.345875 -0.835028 0.427899 0.812500 0.312500
-0.375000 0.771329 1.999869 0.252884 -0.474570 0.843109 0.822013 0.332589
-0.414904 0.750000 1.999852 0.253782 -0.474082 0.843114 0.830425 0.332589
0.000000 -0.000000 0.664995 0.000000 0.000000 1.000000 0.796875 0.000000
-0.038060 0.191342 0.767895 0.128899 -0.648018 0.750638 0.781250 0.062500
-0.162212 0.815493 1.936544 0.176320 -0.886466 0.427890 0.781250 0.312500
-0.168006 0.844625 1.999956 0.099964 -0.502775 0.858617 0.781250 0.332589
-0.250000 0.819752 1.999849 0.156505 -0.515391 0.842543 0.797112 0.332589
-0.137950 0.693520 1.676557 0.176419 -0.886913 0.426922 0.781250 0.250000
-0.212607 0.513279 1.351067 0.342930 -0.827906 0.443815 0.812500 0.187500
-0.074658 0.375330 1.023280 0.165600 -0.832531 0.528649 0.781250 0.125000
-0.108386 0.544895 1.351067 0.174824 -0.878900 0.443815 0.781250 0.187500
0.000000 -0.000000 0.664995 0.000000 0.000000 1.000000 0.765625 0.000000
0.000000 0.861172 1.999956 0.025296 -0.525382 0.850490 0.750000 0.332589
-0.125000 0.848861 1.999880 0.053375 -0.536751 0.842051 0.773280 0.332589
0.589373 0.625000 1.999910 -0.341998 -0.415280 0.842959 0.676328 0.546875
-0.500000 0.698346 1.999905 0.340644 -0.416233 0.843037 0.812500 0.537707
0.698346 0.500000 1.999905 -0.416233 -0.340642 0.843038 0.662707 0.562500
-0.771329 0.375000 1.999869 0.474571 -0.252884 0.843109 0.846416 0.578125
0.771329 -0.375000 1.999869 -0.474571 0.252883 0.843109 0.653584 0.671875
-0.698346 -0.500000 1.999905 0.416233 0.340643 0.843037 0.837293 0.687500
0.500000 -0.698346 1.999905 -0.340643 0.416233 0.843038 0.687500 0.712293
-1.000000 1.000000 2.000000 0.577350 -0.577350 0.577350 0.875000 0.500000
-1.000000 0.625000 2.000000 0.000000 0.000000 1.000000 0.875000 0.546875
-1.000000 0.375000 2.000000 0.000000 0.000000 1.000000 0.875000 0.578125
-1.000000 0.000000 2.000000 0.000000 0.000000 1.000000 0.875000 0.625000
-1.000000 -0.500000 2.000000 0.000000 0.000000 1.000000 0.875000 0.687500
-1.000000 -1.000000 2.000000 0.577350 0.577350 0.577350 0.875000 0.750000
0.478442 0.716039 1.999956 -0.284346 -0.425895 0.858930 0.656250 0.332589
0.608941 0.608941 1.999956 -0.362356 -0.362356 0.858718 0.625000 0.332589
0.716039 0.478442 1.999956 -0.425894 -0.284347 0.858930 0.593750 0.332589
0.795620 0.329556 1.999956 -0.473287 -0.195522 0.858936 0.562500 0.332589
0.716039 -0.478442 1.999956 -0.425895 0.284347 0.858930 0.406250 0.332589
0.608941 -0.608941 1.999956 -0.362357 0.362356 0.858717 0.375000 0.332589
0.478442 -0.716039 1.999956 -0.284346 0.425895 0.858930 0.343750 0.332589
0.329556 -0.795620 1.999956 -0.195521 0.473287 0.858936 0.312500 0.332589
-0.000000 -0.861172 1.999956 0.025295 0.525382 0.850491 0.250000 0.332589
-0.375000 -0.771329 1.999869 0.252884 0.474571 0.843109 0.177987 0.332589
-0.608941 -0.608941 1.999956 0.362356 0.362356 0.858718 0.125000 0.332589
-0.716039 -0.478442 1.999956 0.425897 0.284349 0.858928 0.093750 0.332589
-0.795619 -0.329556 1.999956 0.473287 0.195522 0.858936 0.062500 0.332589
-0.555570 0.000000 1.351068 0.896119 0.000000 0.443815 0.000000 0.187500
-0.861172 0.000000 1.999956 0.525389 -0.025295 0.850486 1.000000 0.332589
-0.716038 0.478442 1.999956 0.425894 -0.284347 0.858930 0.906250 0.332589
-0.608941 0.608941 1.999956 0.362356 -0.362356 0.858718 0.875000 0.332589
-0.589372 0.625000 1.999910 0.341998 -0.415280 0.842959 0.870343 0.332589
-0.329556 0.795619 1.999956 0.195521 -0.473287 0.858936 0.812500 0.332589
3 0 0 0
3 0 0 0
3 0 0 0
3 0 0 0
3 0 0 0
3 1 2 3
3 4 5 2
3 6 7 5
3 8 9 10
3 11 12 13
3 14 15 16
3 17 18 18
3 18 19 20
3 21 22 23
3 24 25 26
3 27 28 29
3 30 28 27
3 31 32 30
3 33 34 31
3 3 35 36
3 5 35 2
3 5 7 37
3 7 38 37
3 28 39 29
3 32 40 41
3 34 40 32
3 42 43 34
3 35 44 36
3 35 45 46
3 45 47 46
3 48 40 49
3 43 50 51
3 43 52 50
3 44 53 54
3 53 55 54
3 56 50 57
3 58 57 52
3 59 60 61
3 62 63 64
3 65 66 67
3 68 69 70
3 71 72 73
3 74 75 75
3 76 77 71
3 75 78 79
3 76 80 81
3 82 83 84
3 85 86 87
3 88 89 90
3 91 92 93
3 94 92 91
3 95 96 97
3 98 95 97
3 92 99 93
3 100 92 101
3 102 103 104
3 105 106 107
3 108 105 107
3 95 109 108
3 100 110 99
3 103 111 100
3 112 103 113
3 114 115 116
3 117 118 119
3 120 119 121
3 108 120 105
3 109 122 108
3 111 123 110
3 112 124 111
3 112 125 126
3 125 114 116
3 127 128 129
3 130 131 132
3 133 134 135
3 136 133 137
3 138 139 140
3 141 142 143
3 144 145 146
3 120 147 117
3 120 148 149
3 150 148 122
3 151 152 153
3 154 1 151
3 154 6 4
3 155 6 156
3 157 158 155
3 159 8 157
3 159 14 11
3 160 17 14
3 161 17 162
3 163 19 161
3 163 24 21
3 164 24 165
3 166 27 164
3 166 31 30
3 167 31 168
3 167 169 33
3 169 42 33
3 170 171 42
3 171 172 52
3 172 58 52
3 58 173 62
3 62 174 68
3 174 74 68
3 74 175 78
3 78 176 82
3 176 88 82
3 177 98 88
3 98 178 109
3 178 150 109
3 179 180 150
3 181 182 180
3 180 183 148
3 149 183 184
3 149 185 147
3 147 186 144
3 144 187 141
3 138 187 188
3 136 188 189
3 136 190 134
3 134 191 130
3 127 191 192
3 127 193 125
3 125 194 126
3 124 194 195
3 124 196 123
3 197 196 198
3 199 123 197
3 99 199 200
3 93 200 201
3 202 93 201
3 203 204 202
3 76 203 205
3 77 205 206
3 207 77 206
3 208 72 207
3 59 208 209
3 210 59 209
3 211 44 210
3 3 211 212
3 152 3 212
3 213 214 215
3 216 213 217
3 218 217 219
3 220 218 219
3 221 222 223
3 215 221 224
3 225 226 227
3 228 221 214
3 229 214 230
3 231 230 216
3 232 216 218
3 233 232 218
3 232 234 231
3 235 236 232
3 237 238 225
3 239 225 228
3 240 228 229
3 231 240 229
3 241 242 239
3 240 241 239
3 243 240 234
3 244 234 236
3 245 244 236
3 246 247 248
3 249 250 244
3 251 252 248
3 253 248 241
3 254 253 241
3 255 254 243
3 250 243 244
3 256 257 253
3 258 256 255
3 250 258 255
3 259 260 250
3 261 262 263
3 257 264 253
3 265 266 267
3 268 262 257
3 269 268 257
3 258 270 269
3 260 271 258
3 272 273 260
3 270 274 268
3 271 275 270
3 276 271 273
3 277 276 273
3 278 279 280
3 274 265 268
3 281 282 283
3 284 278 274
3 275 284 274
3 285 275 286
3 287 286 276
3 288 287 276
3 285 289 290
3 287 291 285
3 292 293 287
3 294 295 296
3 297 281 284
3 290 297 284
3 298 299 294
3 300 294 297
3 289 300 297
3 301 289 291
3 302 291 293
3 303 302 293
3 304 305 301
3 302 304 301
3 306 307 302
3 308 309 310
3 311 312 300
3 305 311 300
3 313 314 310
3 315 310 311
3 316 315 311
3 317 316 304
3 307 317 304
3 318 319 307
3 319 320 317
3 321 322 319
3 323 324 325
3 326 327 315
3 328 326 315
3 320 328 317
3 329 323 326
3 330 329 326
3 331 330 320
3 322 331 320
3 332 333 322
3 334 335 336
3 337 338 333
3 339 340 341
3 342 334 329
3 343 342 329
3 344 343 331
3 333 344 331
3 345 341 342
3 346 345 342
3 347 346 344
3 348 344 338
3 349 348 338
3 350 351 352
3 353 354 348
3 355 356 357
3 358 350 345
3 359 358 345
3 347 360 359
3 348 361 347
3 360 362 358
3 363 360 361
3 354 363 361
3 364 365 354
3 366 367 368
3 362 355 358
3 369 370 371
3 372 366 362
3 373 372 362
3 363 374 373
3 365 375 363
3 376 377 365
3 374 378 372
3 375 379 374
3 377 380 375
3 381 382 377
3 383 384 371
3 378 371 372
3 385 386 387
3 388 389 378
3 379 388 378
3 380 390 379
3 382 391 380
3 392 393 382
3 394 390 391
3 393 394 391
3 395 396 393
3 397 398 399
3 400 387 388
3 390 400 388
3 401 402 403
3 404 397 400
3 405 404 400
3 406 405 394
3 396 406 394
3 407 408 396
3 409 410 411
3 412 413 409
3 414 415 416
3 417 418 419
3 420 417 419
3 410 420 411
3 421 422 423
3 424 414 417
3 425 424 417
3 426 425 410
3 413 426 410
3 427 428 413
3 428 429 426
3 430 431 428
3 432 433 421
3 434 421 424
3 435 434 424
3 426 436 435
3 437 438 434
3 436 437 434
3 429 439 436
3 431 440 429
3 441 442 431
3 443 444 445
3 446 447 442
3 448 449 450
3 451 445 437
3 439 451 437
3 452 439 440
3 447 440 442
3 453 448 451
3 454 453 451
3 455 454 452
3 456 452 447
3 457 456 447
3 458 459 460
3 461 462 456
3 463 464 465
3 466 458 453
3 467 466 453
3 468 467 455
3 456 468 455
3 213 466 469
3 217 469 468
3 462 217 468
3 470 219 462
3 471 472 224
3 215 463 466
3 0 0 0
3 0 0 0
3 0 0 0
3 0 0 0
3 0 0 0
3 1 4 2
3 4 6 5
3 6 158 7
3 7 158 10
3 158 8 10
3 13 9 8
3 8 11 13
3 16 12 11
3 11 14 16
3 18 15 14
3 14 17 18
3 18 17 19
3 23 20 19
3 19 21 23
3 26 22 21
3 21 24 26
3 29 25 24
3 24 27 29
3 30 32 28
3 31 34 32
3 33 42 34
3 3 2 35
3 5 45 35
3 37 473 5
3 473 45 5
3 7 10 38
3 28 474 39
3 41 474 32
3 474 28 32
3 34 43 40
3 42 171 43
3 35 53 44
3 46 475 35
3 475 53 35
3 45 473 47
3 48 41 40
3 51 49 43
3 49 40 43
3 43 171 52
3 54 60 59
3 59 44 54
3 53 475 55
3 56 51 50
3 476 57 58
3 57 50 52
3 61 66 65
3 65 59 61
3 64 476 58
3 58 62 64
3 67 73 72
3 72 65 67
3 70 63 62
3 62 68 70
3 71 77 72
3 75 69 68
3 68 74 75
3 71 80 76
3 77 71 71
3 75 74 78
3 81 86 85
3 85 76 81
3 84 79 78
3 78 82 84
3 87 477 204
3 204 85 87
3 90 83 82
3 82 88 90
3 93 204 91
3 204 477 91
3 94 101 92
3 95 478 96
3 97 89 88
3 88 98 97
3 92 100 99
3 101 104 100
3 104 103 100
3 102 113 103
3 105 121 106
3 107 478 108
3 478 95 108
3 95 98 109
3 100 111 110
3 103 112 111
3 113 479 112
3 479 114 112
3 114 479 115
3 117 146 118
3 121 105 120
3 120 117 119
3 108 122 120
3 109 150 122
3 111 124 123
3 112 126 124
3 112 114 125
3 128 127 116
3 127 125 116
3 129 131 130
3 130 127 129
3 132 135 134
3 134 130 132
3 133 136 134
3 137 139 138
3 138 136 137
3 140 142 141
3 141 138 140
3 143 145 144
3 144 141 143
3 146 117 147
3 147 144 146
3 120 149 147
3 120 122 148
3 150 180 148
3 151 1 152
3 154 4 1
3 154 156 6
3 155 158 6
3 157 8 158
3 159 11 8
3 159 160 14
3 160 162 17
3 161 19 17
3 163 21 19
3 163 165 24
3 164 27 24
3 166 30 27
3 166 168 31
3 167 33 31
3 167 480 169
3 169 170 42
3 170 481 171
3 171 481 172
3 172 482 58
3 58 482 173
3 62 173 174
3 174 483 74
3 74 483 175
3 78 175 176
3 176 177 88
3 177 484 98
3 98 484 178
3 178 179 150
3 179 181 180
3 181 485 182
3 180 182 183
3 149 148 183
3 149 184 185
3 147 185 186
3 144 186 187
3 138 141 187
3 136 138 188
3 136 189 190
3 134 190 191
3 127 130 191
3 127 192 193
3 125 193 194
3 124 126 194
3 124 195 196
3 197 123 196
3 199 110 123
3 99 110 199
3 93 99 200
3 202 204 93
3 203 85 204
3 76 85 203
3 77 76 205
3 207 72 77
3 208 65 72
3 59 65 208
3 210 44 59
3 211 36 44
3 3 36 211
3 152 1 3
3 213 230 214
3 216 230 213
3 218 216 217
3 223 471 224
3 224 221 223
3 215 214 221
3 227 222 221
3 221 225 227
3 228 225 221
3 229 228 214
3 231 229 230
3 232 231 216
3 232 236 234
3 238 226 225
3 225 242 237
3 242 486 237
3 239 242 225
3 240 239 228
3 231 234 240
3 241 248 242
3 240 254 241
3 243 254 240
3 244 243 234
3 247 486 242
3 242 248 247
3 248 487 246
3 252 487 248
3 248 264 251
3 264 488 251
3 253 264 248
3 254 256 253
3 255 256 254
3 250 255 243
3 256 269 257
3 258 269 256
3 250 260 258
3 261 488 264
3 264 262 261
3 262 489 263
3 257 262 264
3 489 262 267
3 262 265 267
3 268 265 262
3 269 270 268
3 258 271 270
3 260 273 271
3 270 275 274
3 271 286 275
3 276 286 271
3 266 265 280
3 265 278 280
3 278 279 279
3 274 278 265
3 279 278 283
3 278 281 283
3 284 281 278
3 275 290 284
3 285 290 275
3 287 285 286
3 285 291 289
3 287 293 291
3 282 281 296
3 281 294 296
3 297 294 281
3 290 289 297
3 295 294 299
3 294 312 298
3 312 490 298
3 300 312 294
3 289 305 300
3 301 305 289
3 302 301 291
3 304 316 305
3 302 307 304
3 309 490 312
3 312 310 309
3 310 491 308
3 311 310 312
3 305 316 311
3 314 491 310
3 310 327 313
3 327 492 313
3 315 327 310
3 316 328 315
3 317 328 316
3 307 319 317
3 319 322 320
3 492 327 325
3 327 323 325
3 323 493 324
3 326 323 327
3 328 330 326
3 320 330 328
3 329 334 323
3 330 343 329
3 331 343 330
3 322 333 331
3 336 493 323
3 323 334 336
3 340 335 334
3 334 341 340
3 341 494 339
3 342 341 334
3 343 346 342
3 344 346 343
3 333 338 344
3 345 350 341
3 346 359 345
3 347 359 346
3 348 347 344
3 494 341 352
3 341 350 352
3 351 350 357
3 350 355 357
3 358 355 350
3 359 360 358
3 347 361 360
3 348 354 361
3 360 373 362
3 363 373 360
3 354 365 363
3 356 355 495
3 355 366 368
3 495 355 368
3 362 366 355
3 370 367 366
3 366 371 370
3 371 496 369
3 372 371 366
3 373 374 372
3 363 375 374
3 365 377 375
3 374 379 378
3 375 380 379
3 377 382 380
3 384 496 371
3 371 389 383
3 389 497 383
3 378 389 371
3 386 497 389
3 389 387 386
3 387 498 385
3 388 387 389
3 379 390 388
3 380 391 390
3 382 393 391
3 394 405 390
3 393 396 394
3 399 498 387
3 387 397 399
3 400 397 387
3 390 405 400
3 402 398 397
3 397 403 402
3 403 401 401
3 404 403 397
3 405 499 404
3 406 499 405
3 396 408 406
3 409 413 410
3 416 500 418
3 418 414 416
3 417 414 418
3 420 425 417
3 410 425 420
3 423 415 414
3 414 421 423
3 424 421 414
3 425 435 424
3 426 435 425
3 413 428 426
3 428 431 429
3 433 422 421
3 421 438 432
3 438 501 432
3 434 438 421
3 435 436 434
3 426 429 436
3 437 445 438
3 436 439 437
3 429 440 439
3 431 442 440
3 444 501 438
3 438 445 444
3 445 502 443
3 450 503 445
3 503 502 445
3 450 445 448
3 451 448 445
3 439 454 451
3 452 454 439
3 447 452 440
3 453 458 448
3 454 467 453
3 455 467 454
3 456 455 452
3 449 448 460
3 448 458 460
3 458 504 459
3 465 504 458
3 458 463 465
3 466 463 458
3 467 469 466
3 468 469 467
3 456 462 468
3 213 215 466
3 217 213 469
3 462 219 217
3 472 464 463
3 463 224 472
3 224 471 471
3 215 224 463
