ply
format ascii 1.0
comment Created by Blender 3.2.0 - www.blender.org
element vertex 393
property float x
property float y
property float z
element face 722
property list uchar uint vertex_indices
end_header
-1.000000 -0.000000 -1.000000
1.000000 -0.000000 1.000000
1.000000 -0.000000 -1.000000
-1.000000 2.000000 -1.000000
-1.000000 -0.000000 1.000000
-1.000000 2.000000 1.000000
1.000000 2.000000 1.000000
0.875000 2.000000 0.875000
0.750000 2.000000 0.750000
0.750000 2.000000 0.875000
0.875000 2.000000 0.750000
0.750000 2.000000 0.625000
0.875000 2.000000 0.625000
0.750000 2.000000 0.500000
0.875000 2.000000 0.375000
0.771330 2.000000 0.375000
0.750000 2.000000 0.414905
0.875000 2.000000 0.250000
0.819753 2.000000 0.250000
0.795620 2.000000 0.329557
0.875000 2.000000 0.125000
0.848861 2.000000 0.125000
0.844625 2.000000 0.168006
0.875000 2.000000 0.000000
0.861172 2.000000 0.000000
0.861172 2.000000 0.000000
0.875000 2.000000 -0.125000
0.848861 2.000000 -0.125000
0.875000 2.000000 -0.250000
0.819752 2.000000 -0.250000
0.844625 2.000000 -0.168006
0.875000 2.000000 -0.375000
0.771329 2.000000 -0.375000
0.795619 2.000000 -0.329556
0.875000 2.000000 -0.500000
0.750000 2.000000 -0.500000
0.750000 2.000000 -0.414904
0.875000 2.000000 -0.625000
0.875000 2.000000 -0.750000
0.750000 2.000000 -0.625000
0.875000 2.000000 -0.875000
0.750000 2.000000 -0.750000
0.625000 2.000000 0.750000
0.625000 2.000000 0.875000
0.698346 2.000000 0.500000
0.716039 2.000000 0.478442
0.716038 2.000000 -0.478442
0.625000 2.000000 -0.625000
0.625000 2.000000 -0.589372
0.750000 2.000000 -0.875000
0.625000 2.000000 -0.750000
0.500000 2.000000 0.875000
0.625000 2.000000 0.625000
0.589373 2.000000 0.625000
0.608941 2.000000 0.608941
0.608941 2.000000 -0.608941
0.589372 2.000000 -0.625000
0.500000 2.000000 -0.750000
0.500000 2.000000 -0.698346
0.500000 2.000000 -0.875000
0.500000 2.000000 0.750000
0.414905 2.000000 0.750000
0.478442 2.000000 0.716039
0.478442 2.000000 -0.716038
0.414904 2.000000 -0.750000
0.375000 2.000000 -0.875000
0.375000 2.000000 0.875000
0.375000 2.000000 0.771330
0.329556 2.000000 0.795620
0.250000 2.000000 -0.875000
0.250000 2.000000 -0.819752
0.329556 2.000000 -0.795619
0.250000 2.000000 0.875000
0.250000 2.000000 0.819753
0.168006 2.000000 0.844625
0.125000 2.000000 -0.875000
0.125000 2.000000 -0.848861
0.168006 2.000000 -0.844625
-0.000000 2.000000 0.861172
0.125000 2.000000 0.875000
0.125000 2.000000 0.848861
-0.000000 2.000000 -0.875000
-0.000000 2.000000 -0.861172
0.000000 2.000000 -0.861172
-0.125000 2.000000 0.875000
-0.000000 2.000000 0.875000
-0.000000 2.000000 0.861172
-0.125000 2.000000 -0.875000
-0.125000 2.000000 -0.848861
-0.125000 2.000000 0.848861
-0.168007 2.000000 0.844625
-0.250000 2.000000 -0.875000
-0.250000 2.000000 -0.819753
-0.168006 2.000000 -0.844625
-0.250000 2.000000 0.875000
-0.250000 2.000000 0.819753
-0.329557 2.000000 0.795619
-0.375000 2.000000 -0.875000
-0.375000 2.000000 -0.771329
-0.329556 2.000000 -0.795619
-0.414905 2.000000 0.750000
-0.500000 2.000000 0.750000
-0.500000 2.000000 0.875000
-0.478442 2.000000 0.716039
-0.500000 2.000000 -0.750000
-0.478442 2.000000 -0.716039
-0.414904 2.000000 -0.750000
-0.500000 2.000000 -0.875000
-0.625000 2.000000 0.875000
-0.625000 2.000000 0.750000
-0.500000 2.000000 0.698346
-0.608941 2.000000 0.608941
-0.625000 2.000000 0.625000
-0.589373 2.000000 0.625000
-0.625000 2.000000 -0.625000
-0.608941 2.000000 -0.608941
-0.589372 2.000000 -0.625000
-0.625000 2.000000 -0.750000
-0.625000 2.000000 -0.875000
-0.750000 2.000000 0.875000
-0.750000 2.000000 0.750000
-0.750000 2.000000 0.625000
-0.625000 2.000000 0.589373
-0.750000 2.000000 0.500000
-0.716039 2.000000 0.478442
-0.750000 2.000000 0.414905
-0.750000 2.000000 -0.500000
-0.716039 2.000000 -0.478442
-0.698346 2.000000 -0.500000
-0.750000 2.000000 -0.625000
-0.625000 2.000000 -0.589372
-0.750000 2.000000 -0.750000
-0.875000 2.000000 0.875000
-0.875000 2.000000 0.750000
-0.875000 2.000000 0.500000
-0.875000 2.000000 0.625000
-0.875000 2.000000 0.375000
-0.771329 2.000000 0.375000
-0.795620 2.000000 0.329556
-0.875000 2.000000 0.250000
-0.819753 2.000000 0.250000
-0.844625 2.000000 0.168006
-0.861172 2.000000 0.000000
-0.875000 2.000000 0.125000
-0.848861 2.000000 0.125000
-0.875000 2.000000 0.000000
-0.861172 2.000000 -0.000000
-0.875000 2.000000 -0.125000
-0.848861 2.000000 -0.125000
-0.844625 2.000000 -0.168006
-0.875000 2.000000 -0.250000
-0.819753 2.000000 -0.250000
-0.795619 2.000000 -0.329556
-0.875000 2.000000 -0.375000
-0.771329 2.000000 -0.375000
-0.750000 2.000000 -0.414904
-0.875000 2.000000 -0.500000
-0.875000 2.000000 -0.750000
-0.875000 2.000000 -0.625000
-0.750000 2.000000 -0.875000
1.000000 2.000000 0.875000
0.875000 2.000000 1.000000
1.000000 2.000000 0.750000
1.000000 2.000000 0.500000
1.000000 2.000000 0.625000
1.000000 2.000000 0.375000
0.875000 2.000000 0.500000
1.000000 2.000000 0.250000
1.000000 2.000000 0.125000
1.000000 2.000000 -0.125000
1.000000 2.000000 0.000000
1.000000 2.000000 -0.250000
1.000000 2.000000 -0.500000
1.000000 2.000000 -0.375000
1.000000 2.000000 -0.625000
1.000000 2.000000 -0.875000
1.000000 2.000000 -0.750000
0.875000 2.000000 -1.000000
0.750000 2.000000 -1.000000
0.625000 2.000000 -0.875000
0.500000 2.000000 -1.000000
0.250000 2.000000 -1.000000
0.125000 2.000000 -1.000000
-0.125000 2.000000 -1.000000
-0.250000 2.000000 -1.000000
-0.375000 2.000000 -1.000000
-0.625000 2.000000 -1.000000
-0.750000 2.000000 -1.000000
-0.875000 2.000000 -0.875000
-0.875000 2.000000 -1.000000
-1.000000 2.000000 -0.875000
-1.000000 2.000000 -0.750000
-1.000000 2.000000 -0.625000
-1.000000 2.000000 -0.500000
-1.000000 2.000000 -0.375000
-1.000000 2.000000 -0.250000
-1.000000 2.000000 -0.125000
-1.000000 2.000000 0.000000
-1.000000 2.000000 0.125000
-1.000000 2.000000 0.250000
-1.000000 2.000000 0.375000
-1.000000 2.000000 0.500000
-1.000000 2.000000 0.625000
-1.000000 2.000000 0.750000
-1.000000 2.000000 0.875000
-0.875000 2.000000 1.000000
-0.750000 2.000000 1.000000
-0.625000 2.000000 1.000000
-0.500000 2.000000 1.000000
-0.375000 2.000000 1.000000
-0.250000 2.000000 1.000000
-0.375000 2.000000 0.875000
-0.125000 2.000000 1.000000
0.000000 2.000000 1.000000
0.125000 2.000000 1.000000
0.250000 2.000000 1.000000
0.375000 2.000000 1.000000
0.500000 2.000000 1.000000
0.625000 2.000000 1.000000
0.750000 2.000000 1.000000
0.555570 1.668530 0.000000
0.693520 1.792893 0.137950
0.707107 1.792893 0.000000
0.375330 1.576120 0.074658
0.382683 1.576120 0.000000
0.191342 1.519215 0.038060
0.195090 1.519215 0.000000
-0.000000 1.500000 0.000000
0.815493 1.944430 0.162212
0.831470 1.944430 0.000000
0.768178 1.944430 0.318190
0.653281 1.792893 0.270598
0.513280 1.668530 0.212608
0.544895 1.668530 0.108386
0.353553 1.576120 0.146447
0.180240 1.519215 0.074658
0.318190 1.576120 0.212608
0.162212 1.519215 0.108386
0.587938 1.792893 0.392848
0.461940 1.668530 0.308658
0.500000 1.792893 0.500000
0.691342 1.944430 0.461940
0.270598 1.576120 0.270598
0.137950 1.519215 0.137950
0.625000 2.000000 0.589373
0.587938 1.944430 0.587938
0.108386 1.519215 0.162212
0.500000 2.000000 0.698346
0.392847 1.792893 0.587938
0.392847 1.668530 0.392848
0.212608 1.576120 0.318190
0.308658 1.668530 0.461940
0.270598 1.792893 0.653281
0.146447 1.576120 0.353554
0.074658 1.519215 0.180240
0.318190 1.944430 0.768178
0.461940 1.944430 0.691342
0.162212 1.944430 0.815493
0.137950 1.792893 0.693520
0.212607 1.668530 0.513280
0.108386 1.668530 0.544895
0.074658 1.576120 0.375330
0.038060 1.519215 0.191342
-0.000000 1.792893 0.707107
-0.000000 1.668530 0.555570
-0.000000 1.519215 0.195090
-0.000000 1.944430 0.831469
-0.162212 1.944430 0.815493
-0.137950 1.792893 0.693520
-0.074658 1.576120 0.375330
-0.000000 1.576120 0.382684
-0.038060 1.519215 0.191342
-0.212608 1.668530 0.513280
-0.108386 1.668530 0.544895
-0.146447 1.576120 0.353554
-0.074658 1.519215 0.180240
-0.318190 1.944430 0.768178
-0.270598 1.792893 0.653281
-0.375000 2.000000 0.771329
-0.392847 1.792893 0.587938
-0.212608 1.576120 0.318190
-0.108386 1.519215 0.162212
-0.270598 1.576120 0.270598
-0.308658 1.668530 0.461940
-0.137950 1.519215 0.137950
-0.587938 1.944430 0.587938
-0.500000 1.792893 0.500000
-0.461940 1.944430 0.691342
-0.698346 2.000000 0.500000
-0.587938 1.792893 0.392847
-0.392847 1.668530 0.392847
-0.318190 1.576120 0.212608
-0.162212 1.519215 0.108386
-0.353554 1.576120 0.146447
-0.180240 1.519215 0.074658
-0.768178 1.944430 0.318190
-0.653281 1.792893 0.270598
-0.691342 1.944430 0.461940
-0.461940 1.668530 0.308658
-0.693520 1.792893 0.137950
-0.513280 1.668530 0.212607
-0.375330 1.576120 0.074658
-0.191342 1.519215 0.038060
-0.815493 1.944430 0.162212
-0.195090 1.519215 -0.000000
-0.831469 1.944430 -0.000000
-0.707107 1.792893 0.000000
-0.544895 1.668530 0.108386
-0.382684 1.576120 0.000000
-0.693520 1.792893 -0.137950
-0.555570 1.668530 -0.000000
-0.375330 1.576120 -0.074658
-0.191342 1.519215 -0.038060
-0.815493 1.944430 -0.162212
-0.180240 1.519215 -0.074658
-0.768178 1.944430 -0.318190
-0.653281 1.792893 -0.270598
-0.544895 1.668530 -0.108386
-0.513280 1.668530 -0.212608
-0.353553 1.576120 -0.146447
-0.587938 1.792893 -0.392847
-0.318190 1.576120 -0.212608
-0.162212 1.519215 -0.108386
-0.691342 1.944430 -0.461940
-0.587938 1.944430 -0.587938
-0.500000 1.792893 -0.500000
-0.461940 1.668530 -0.308658
-0.392847 1.668530 -0.392847
-0.270598 1.576120 -0.270598
-0.137950 1.519215 -0.137950
-0.392847 1.792893 -0.587938
-0.308658 1.668530 -0.461940
-0.212608 1.576120 -0.318190
-0.108386 1.519215 -0.162212
-0.500000 2.000000 -0.698346
-0.318190 1.944430 -0.768177
-0.270598 1.792893 -0.653281
-0.461940 1.944430 -0.691341
-0.212607 1.668530 -0.513280
-0.146447 1.576120 -0.353553
-0.074658 1.519215 -0.180240
-0.074658 1.576120 -0.375330
-0.038060 1.519215 -0.191342
-0.162212 1.944430 -0.815493
-0.137950 1.792893 -0.693520
-0.000000 1.944430 -0.831469
-0.000000 1.792893 -0.707107
-0.108386 1.668530 -0.544895
-0.000000 1.576120 -0.382683
-0.000000 1.519215 -0.195090
0.074658 1.576120 -0.375330
0.038060 1.519215 -0.191342
0.162212 1.944430 -0.815493
0.137950 1.792893 -0.693520
0.000000 1.668530 -0.555570
0.318189 1.944430 -0.768177
0.270598 1.792893 -0.653281
0.108386 1.668530 -0.544895
0.146446 1.576120 -0.353553
0.074658 1.519215 -0.180240
0.212607 1.576120 -0.318189
0.108386 1.519215 -0.162212
0.375000 2.000000 -0.771329
0.392847 1.792893 -0.587938
0.212607 1.668530 -0.513280
0.308658 1.668530 -0.461939
0.500000 1.792893 -0.500000
0.461939 1.944430 -0.691341
0.392847 1.668530 -0.392847
0.270598 1.576120 -0.270598
0.137950 1.519215 -0.137950
0.587937 1.944430 -0.587937
0.162212 1.519215 -0.108386
0.691341 1.944430 -0.461939
0.698346 2.000000 -0.500000
0.587937 1.792893 -0.392847
0.318189 1.576120 -0.212607
0.653281 1.792893 -0.270598
0.461939 1.668530 -0.308658
0.353553 1.576120 -0.146446
0.180240 1.519215 -0.074658
0.768177 1.944430 -0.318189
0.191342 1.519215 -0.038060
0.815493 1.944430 -0.162212
0.693520 1.792893 -0.137950
0.513279 1.668530 -0.212607
0.375330 1.576120 -0.074658
0.544895 1.668530 -0.108386
1.000000 2.000000 -1.000000
0.625000 2.000000 -1.000000
0.375000 2.000000 -1.000000
0.000000 2.000000 -1.000000
-0.500000 2.000000 -1.000000
3 0 1 2
3 3 4 0
3 1 5 6
3 6 2 1
3 2 3 0
3 7 8 9
3 10 11 8
3 12 13 11
3 14 15 16
3 17 18 19
3 20 21 22
3 23 24 25
3 24 26 27
3 28 29 30
3 31 32 33
3 34 35 36
3 37 35 34
3 38 39 37
3 40 41 38
3 9 42 43
3 11 42 8
3 11 13 44
3 13 45 44
3 35 46 36
3 39 47 48
3 41 47 39
3 49 50 41
3 42 51 43
3 42 52 53
3 52 54 53
3 55 47 56
3 50 57 58
3 50 59 57
3 51 60 61
3 60 62 61
3 63 57 64
3 65 64 59
3 66 67 68
3 69 70 71
3 72 73 74
3 75 76 77
3 78 79 80
3 81 82 83
3 84 85 86
3 82 87 88
3 84 89 90
3 91 92 93
3 94 95 96
3 97 98 99
3 100 101 102
3 103 101 100
3 104 105 106
3 107 104 106
3 101 108 102
3 109 101 110
3 111 112 113
3 114 115 116
3 117 114 116
3 104 118 117
3 109 119 108
3 112 120 109
3 121 112 122
3 123 124 125
3 126 127 128
3 129 128 130
3 117 129 114
3 118 131 117
3 120 132 119
3 121 133 120
3 121 134 135
3 134 123 125
3 136 137 138
3 139 140 141
3 142 143 144
3 145 142 146
3 147 148 149
3 150 151 152
3 153 154 155
3 129 156 126
3 129 157 158
3 159 157 131
3 160 161 6
3 162 7 160
3 162 12 10
3 163 12 164
3 165 166 163
3 167 14 165
3 167 20 17
3 168 23 20
3 169 23 170
3 171 26 169
3 171 31 28
3 172 31 173
3 174 34 172
3 174 38 37
3 175 38 176
3 175 177 40
3 177 49 40
3 178 179 49
3 179 180 59
3 180 65 59
3 65 181 69
3 69 182 75
3 182 81 75
3 81 183 87
3 87 184 91
3 184 97 91
3 185 107 97
3 107 186 118
3 186 159 118
3 187 188 159
3 189 190 188
3 188 191 157
3 158 191 192
3 158 193 156
3 156 194 153
3 153 195 150
3 147 195 196
3 145 196 197
3 145 198 143
3 143 199 139
3 136 199 200
3 136 201 134
3 134 202 135
3 133 202 203
3 133 204 132
3 205 204 5
3 206 132 205
3 108 206 207
3 102 207 208
3 209 102 208
3 210 211 209
3 84 210 212
3 85 212 213
3 214 85 213
3 215 79 214
3 66 215 216
3 217 66 216
3 218 51 217
3 9 218 219
3 161 9 219
3 220 221 222
3 223 220 224
3 225 224 226
3 227 225 226
3 228 22 21
3 222 228 229
3 230 19 18
3 231 228 221
3 232 221 233
3 234 233 223
3 235 223 225
3 227 235 225
3 235 236 234
3 227 237 235
3 16 15 230
3 238 230 231
3 239 231 232
3 234 239 232
3 240 241 238
3 239 240 238
3 242 239 236
3 243 236 237
3 227 243 237
3 244 44 245
3 227 246 243
3 247 53 245
3 248 245 240
3 249 248 240
3 250 249 242
3 246 242 243
3 251 252 248
3 253 251 250
3 246 253 250
3 227 254 246
3 61 255 67
3 252 256 248
3 257 74 73
3 258 255 252
3 259 258 252
3 253 260 259
3 254 261 253
3 227 262 254
3 260 263 258
3 261 264 260
3 265 261 262
3 227 265 262
3 266 78 80
3 263 257 258
3 267 90 89
3 268 266 263
3 264 268 263
3 269 264 270
3 271 270 265
3 227 271 265
3 269 272 273
3 271 274 269
3 227 275 271
3 276 96 95
3 277 267 268
3 273 277 268
3 100 278 276
3 279 276 277
3 272 279 277
3 280 272 274
3 281 274 275
3 227 281 275
3 282 283 280
3 281 282 280
3 227 284 281
3 113 110 285
3 286 287 279
3 283 286 279
3 288 122 285
3 289 285 286
3 290 289 286
3 291 290 282
3 284 291 282
3 227 292 284
3 292 293 291
3 227 294 292
3 295 137 125
3 296 297 289
3 298 296 289
3 293 298 291
3 299 295 296
3 300 299 296
3 301 300 293
3 294 301 293
3 227 302 294
3 303 141 140
3 227 304 302
3 142 144 305
3 306 303 299
3 307 306 299
3 308 307 301
3 302 308 301
3 309 305 306
3 310 309 306
3 311 310 308
3 312 308 304
3 227 312 304
3 313 149 148
3 227 314 312
3 315 152 151
3 316 313 309
3 317 316 309
3 311 318 317
3 312 319 311
3 318 320 316
3 321 318 319
3 314 321 319
3 227 322 314
3 323 127 155
3 320 315 316
3 130 128 324
3 325 323 320
3 326 325 320
3 321 327 326
3 322 328 321
3 227 329 322
3 327 330 325
3 328 331 327
3 329 332 328
3 227 333 329
3 334 116 324
3 330 324 325
3 98 106 335
3 336 337 330
3 331 336 330
3 332 338 331
3 333 339 332
3 227 340 333
3 341 338 339
3 340 341 339
3 227 342 340
3 343 93 92
3 344 335 336
3 338 344 336
3 82 88 345
3 346 343 344
3 347 346 344
3 348 347 341
3 342 348 341
3 227 349 342
3 349 350 348
3 227 351 349
3 352 77 76
3 353 345 346
3 354 353 346
3 350 354 348
3 355 71 70
3 356 352 353
3 357 356 353
3 358 357 350
3 351 358 350
3 227 359 351
3 359 360 358
3 227 361 359
3 64 362 355
3 363 355 356
3 364 363 356
3 358 365 364
3 366 367 363
3 365 366 363
3 360 368 365
3 361 369 360
3 227 370 361
3 56 58 371
3 227 372 370
3 373 46 374
3 375 371 366
3 368 375 366
3 376 368 369
3 372 369 370
3 377 373 375
3 378 377 375
3 379 378 376
3 380 376 372
3 227 380 372
3 381 32 36
3 227 382 380
3 383 30 29
3 384 381 377
3 385 384 377
3 386 385 379
3 380 386 379
3 220 384 387
3 224 387 386
3 382 224 386
3 227 226 382
3 24 27 229
3 222 383 384
3 0 4 1
3 3 5 4
3 1 4 5
3 6 388 2
3 2 388 3
3 7 10 8
3 10 12 11
3 12 166 13
3 13 166 16
3 166 14 16
3 19 15 14
3 14 17 19
3 22 18 17
3 17 20 22
3 25 21 20
3 20 23 25
3 24 23 26
3 30 27 26
3 26 28 30
3 33 29 28
3 28 31 33
3 36 32 31
3 31 34 36
3 37 39 35
3 38 41 39
3 40 49 41
3 9 8 42
3 11 52 42
3 44 244 11
3 244 52 11
3 13 16 45
3 35 374 46
3 48 374 39
3 374 35 39
3 41 50 47
3 49 179 50
3 42 60 51
3 53 247 42
3 247 60 42
3 52 244 54
3 55 48 47
3 58 56 50
3 56 47 50
3 50 179 59
3 61 67 66
3 66 51 61
3 60 247 62
3 63 58 57
3 362 64 65
3 64 57 59
3 68 73 72
3 72 66 68
3 71 362 65
3 65 69 71
3 74 80 79
3 79 72 74
3 77 70 69
3 69 75 77
3 78 85 79
3 83 76 75
3 75 81 83
3 86 89 84
3 85 78 86
3 82 81 87
3 90 95 94
3 94 84 90
3 93 88 87
3 87 91 93
3 96 278 211
3 211 94 96
3 99 92 91
3 91 97 99
3 102 211 100
3 211 278 100
3 103 110 101
3 104 334 105
3 106 98 97
3 97 107 106
3 101 109 108
3 110 113 109
3 113 112 109
3 111 122 112
3 114 130 115
3 116 334 117
3 334 104 117
3 104 107 118
3 109 120 119
3 112 121 120
3 122 288 121
3 288 123 121
3 123 288 124
3 126 155 127
3 130 114 129
3 129 126 128
3 117 131 129
3 118 159 131
3 120 133 132
3 121 135 133
3 121 123 134
3 137 136 125
3 136 134 125
3 138 140 139
3 139 136 138
3 141 144 143
3 143 139 141
3 142 145 143
3 146 148 147
3 147 145 146
3 149 151 150
3 150 147 149
3 152 154 153
3 153 150 152
3 155 126 156
3 156 153 155
3 129 158 156
3 129 131 157
3 159 188 157
3 160 7 161
3 162 10 7
3 162 164 12
3 163 166 12
3 165 14 166
3 167 17 14
3 167 168 20
3 168 170 23
3 169 26 23
3 171 28 26
3 171 173 31
3 172 34 31
3 174 37 34
3 174 176 38
3 175 40 38
3 175 388 177
3 177 178 49
3 178 389 179
3 179 389 180
3 180 390 65
3 65 390 181
3 69 181 182
3 182 391 81
3 81 391 183
3 87 183 184
3 184 185 97
3 185 392 107
3 107 392 186
3 186 187 159
3 187 189 188
3 189 3 190
3 188 190 191
3 158 157 191
3 158 192 193
3 156 193 194
3 153 194 195
3 147 150 195
3 145 147 196
3 145 197 198
3 143 198 199
3 136 139 199
3 136 200 201
3 134 201 202
3 133 135 202
3 133 203 204
3 205 132 204
3 206 119 132
3 108 119 206
3 102 108 207
3 209 211 102
3 210 94 211
3 84 94 210
3 85 84 212
3 214 79 85
3 215 72 79
3 66 72 215
3 217 51 66
3 218 43 51
3 9 43 218
3 161 7 9
3 220 233 221
3 223 233 220
3 225 223 224
3 21 25 229
3 229 228 21
3 222 221 228
3 18 22 228
3 228 230 18
3 231 230 228
3 232 231 221
3 234 232 233
3 235 234 223
3 235 237 236
3 15 19 230
3 230 241 16
3 241 45 16
3 238 241 230
3 239 238 231
3 234 236 239
3 240 245 241
3 239 249 240
3 242 249 239
3 243 242 236
3 44 45 241
3 241 245 44
3 245 54 244
3 53 54 245
3 245 256 247
3 256 62 247
3 248 256 245
3 249 251 248
3 250 251 249
3 246 250 242
3 251 259 252
3 253 259 251
3 246 254 253
3 61 62 256
3 256 255 61
3 255 68 67
3 252 255 256
3 68 255 73
3 255 257 73
3 258 257 255
3 259 260 258
3 253 261 260
3 254 262 261
3 260 264 263
3 261 270 264
3 265 270 261
3 74 257 80
3 257 266 80
3 266 86 78
3 263 266 257
3 86 266 89
3 266 267 89
3 268 267 266
3 264 273 268
3 269 273 264
3 271 269 270
3 269 274 272
3 271 275 274
3 90 267 95
3 267 276 95
3 277 276 267
3 273 272 277
3 96 276 278
3 276 287 100
3 287 103 100
3 279 287 276
3 272 283 279
3 280 283 272
3 281 280 274
3 282 290 283
3 281 284 282
3 110 103 287
3 287 285 110
3 285 111 113
3 286 285 287
3 283 290 286
3 122 111 285
3 285 297 288
3 297 124 288
3 289 297 285
3 290 298 289
3 291 298 290
3 284 292 291
3 292 294 293
3 124 297 125
3 297 295 125
3 295 138 137
3 296 295 297
3 298 300 296
3 293 300 298
3 299 303 295
3 300 307 299
3 301 307 300
3 294 302 301
3 140 138 295
3 295 303 140
3 144 141 303
3 303 305 144
3 305 146 142
3 306 305 303
3 307 310 306
3 308 310 307
3 302 304 308
3 309 313 305
3 310 317 309
3 311 317 310
3 312 311 308
3 146 305 148
3 305 313 148
3 149 313 151
3 313 315 151
3 316 315 313
3 317 318 316
3 311 319 318
3 312 314 319
3 318 326 320
3 321 326 318
3 314 322 321
3 152 315 154
3 315 323 155
3 154 315 155
3 320 323 315
3 128 127 323
3 323 324 128
3 324 115 130
3 325 324 323
3 326 327 325
3 321 328 327
3 322 329 328
3 327 331 330
3 328 332 331
3 329 333 332
3 116 115 324
3 324 337 334
3 337 105 334
3 330 337 324
3 106 105 337
3 337 335 106
3 335 99 98
3 336 335 337
3 331 338 336
3 332 339 338
3 333 340 339
3 341 347 338
3 340 342 341
3 92 99 335
3 335 343 92
3 344 343 335
3 338 347 344
3 88 93 343
3 343 345 88
3 345 83 82
3 346 345 343
3 347 354 346
3 348 354 347
3 342 349 348
3 349 351 350
3 76 83 345
3 345 352 76
3 353 352 345
3 354 357 353
3 350 357 354
3 70 77 352
3 352 355 70
3 356 355 352
3 357 364 356
3 358 364 357
3 351 359 358
3 359 361 360
3 362 71 355
3 355 367 64
3 367 63 64
3 363 367 355
3 364 365 363
3 358 360 365
3 366 371 367
3 365 368 366
3 360 369 368
3 361 370 369
3 58 63 367
3 367 371 58
3 371 55 56
3 374 48 371
3 48 55 371
3 374 371 373
3 375 373 371
3 368 378 375
3 376 378 368
3 372 376 369
3 377 381 373
3 378 385 377
3 379 385 378
3 380 379 376
3 46 373 36
3 373 381 36
3 381 33 32
3 29 33 381
3 381 383 29
3 384 383 381
3 385 387 384
3 386 387 385
3 380 382 386
3 220 222 384
3 224 220 387
3 382 226 224
3 27 30 383
3 383 229 27
3 229 25 24
3 222 229 383
